# xmcd
#
# Track frame offsets:
#	150
#	18160
#	34209
#	48242
#	63667
#	82542
#	99975
#	116914
#	130236
#	147463
#	163775
#	182358
#	196115
#	214328
#	229186
#	245957
#	263592
#	279814
#	296368
#	312598
#	331751
#
# Disc length: 4667 seconds
#
# Revision: 1
# Processed by: cddbd v1.5.2PL0 Copyright (c) Steve Scherf et al.
# Submitted via: audiograbber 1.83.01
#
DISCID=29123915
DTITLE=Various Artist - ERG Nu Country Traxx Vol 117
DYEAR=2009
DGENRE=Country
TTITLE0=Carrie Underwood - I Told You So
TTITLE1=Montgomery Gentry - One In Every Crowd
TTITLE2=Trace Adkins - Marry For Money
TTITLE3=Taylor Swift - White Horse
TTITLE4=Tim McGraw - Nothin' To Die For
TTITLE5=John Rich - Another You
TTITLE6=Craig Morgan - God Must Really Love Me
TTITLE7=Todd Fritsch - Texas Talkin'
TTITLE8=Kellie Pickler - Best Days Of Your Life
TTITLE9=Mark Chestnutt - Things To Do In Wichita
TTITLE10=Keith Anderson - She Could've Been Mine
TTITLE11=Kenny Chesney f. Mac McAnally - Down The Road
TTITLE12=Chuck Wicks - Man Of The House
TTITLE13=Shane O'Dazier - I Hate This Town
TTITLE14=Jason Aldean - She's Country
TTITLE15=Josh Gracin - Telluride
TTITLE16=Brooks and Dunn f. Reba McEntire - Cowgirls Don't Cry
TTITLE17=Caitlin and Will - Even Now
TTITLE18=Rodney Atkins - It's America
TTITLE19=Megan Munroe - Moonshine
TTITLE20=Jeremy McComb - Cold
EXTD=
EXTT0=
EXTT1=
EXTT2=
EXTT3=
EXTT4=
EXTT5=
EXTT6=
EXTT7=
EXTT8=
EXTT9=
EXTT10=
EXTT11=
EXTT12=
EXTT13=
EXTT14=
EXTT15=
EXTT16=
EXTT17=
EXTT18=
EXTT19=
EXTT20=
PLAYORDER=
